PathFileType	4	(X/Y/Z)	C:/Users/beibeiliu/ov580/test_trc\sequence.45_training_dense_left.trc
DataRate	CameraRate	NumFrames	NumMarkers	Units	OrigDataRate	OrigDataStartFrame	OrigNumFrames
120	120	8	19	mm	120	29	84
Frame#	Time	ThumbCMC			ThumbMCP			ThumbIP			ThumbTip			IndexMCP			IndexPIP			IndexTip			MiddleMCP			MiddlePIP			MiddleTip			RingMCP			RingPIP			RingTip			PinkyMCP			PinkyPIP			PinkyTip			BackHand1			BackHand2			BackHand3	
		X0	Y0	Z0	X1	Y1	Z1	X2	Y2	Z2	X3	Y3	Z3	X4	Y4	Z4	X5	Y5	Z5	X6	Y6	Z6	X7	Y7	Z7	X8	Y8	Z8	X9	Y9	Z9	X10	Y10	Z10	X11	Y11	Z11	X12	Y12	Z12	X13	Y13	Z13	X14	Y14	Z14	X15	Y15	Z15	X16	Y16	Z16	X17	Y17	Z17	X18	Y18	Z18	
28	0.233333	-213.177	108.859	54.7955	-203.437	132.929	45.7566	-184.476	146.55	33.6929	-162.147	153.313	33.0162	-166.497	110.46	7.70337	-151.875	133.111	4.11402	-162.875	150.526	30.5451	-151.256	110.936	16.6801	-141.419	141.015	21.9334	-158.429	142.51	45.7093	-137.578	111.242	31.9563	-140.578	137.249	39.0017	-159.379	135.48	56.6638	-133.901	103.89	50.3371	-135.938	129.199	55.4504	-159.155	129.001	67.11	-164.8	75.5177	56.1907	-186.864	66.9766	77.9368	-195.842	77.6929	51.9561	
29	0.241667	-226.132	110.974	55.3501	-210.015	137.139	50.3747	-192.719	155.022	45.8271	-165.849	157.014	50.7103	-174.077	119.876	12.6736	-156.891	143.991	14.8069	-168.705	157.055	41.7518	-154.418	116.725	21.8324	-146.278	141.734	36.4271	-171.578	139.399	58.8801	-148.665	111.373	36.9054	-148.029	132.877	52.1676	-167.752	128.323	69.8165	-147.995	100.422	51.7827	-148.068	122.868	64.5363	-172.353	120.125	72.7524	-186.738	75.4556	47.5441	-204.039	65.6167	62.1965	-212.042	82.6488	41.2008	
30	0.25	-231.547	109.066	53.7883	-216.78	138.627	56.9287	-196.8	145.41	60.1113	-170.505	144.422	65.0726	-178.815	126.783	15.9172	-160.116	139.828	27.3546	-169.996	148.408	58.7894	-164.515	112.702	28.9375	-151.909	133.047	49.8934	-174.755	128.587	70.3399	-156.254	105.18	41.5876	-155.837	120.947	65.1525	-181.515	118.069	74.2678	-157.211	91.1272	54.9917	-156.664	107.493	70.8785	-185.02	107.909	80.8601	-195.244	68.9027	40.6246	-219.281	59.2369	54.3621	-222.133	82.4713	36.0298	
31	0.258333	-240.463	103.835	57.4059	-221.935	132.126	66.2173	-200.778	136.288	68.6571	-173.99	136.424	75.8293	-180.951	118.987	24.6506	-164.802	134.921	37.4242	-173.704	139.712	66.896	-167.542	109.185	34.6133	-158.899	122.834	58.6073	-184.08	119.244	78.2091	-164.199	91.3681	48.0192	-161.131	107.513	67.6439	-187.042	105.008	81.4935	-166.224	75.129	57.733	-163.923	93.165	78.0253	-186.361	96.2886	85.2846	-206.379	63.0392	39.6531	-231.628	55.0296	51.5646	-231.174	83.3548	35.8254	
32	0.266667	-243.194	97.5098	58.2453	-224.84	121.234	67.538	-201.353	129.403	71.7218	-177.259	120.91	76.2381	-190.109	110.208	24.7841	-167.013	122.621	40.0665	-174.668	125.294	68.5926	-173.931	94.9958	34.8853	-159.566	109.753	57.6221	-184.933	107.659	78.1874	-170.126	82.3997	45.1586	-163.343	94.8454	67.7239	-187.691	94.1756	82.3382	-170.277	63.9898	57.861	-169.358	83.2968	74.0376	-194.166	85.4892	83.8825	-211.685	54.1675	38.5894	-238.289	47.6595	50.8269	-234.493	70.8783	38.6406	
33	0.275	-247.691	100.101	57.7872	-221.182	119.828	63.5456	-193.661	121.954	62.9463	-175.273	111.617	66.0234	-194.059	100.13	18.1292	-169.433	110.487	29.1194	-175.143	115.064	58.3649	-179.818	89.2805	24.2843	-162.655	98.891	44.5702	-181.91	99.3562	69.1072	-176.244	74.7387	35.4253	-167.472	84.8192	56.1009	-190.231	86.2061	74.9138	-175.607	57.2747	47.9678	-174.331	73.7859	64.2504	-192.848	78.8301	79.8879	-224.561	53.9569	33.232	-245.696	47.9953	46.3908	-243.871	70.9609	34.1572	
34	0.283333	-242.042	110.797	60.2464	-209.763	122.638	61.3809	-187.666	116.054	53.5628	-170.008	98.9885	47.419	-204.887	104.303	7.29277	-174.235	104.223	15.1159	-172.031	105.315	40.0628	-191.836	87.5654	8.1122	-168.756	88.7938	26.9448	-184.893	92.2014	55.1059	-191.709	68.1918	18.9432	-174.551	79.7066	39.3305	-191.622	82.2705	62.405	-197.703	51.9954	31.0702	-182.109	67.0206	48.7292	-197.576	78.063	65.3043	-242.158	65.1958	29.6293	-262.341	63.1975	51.0661	-253.851	85.9672	36.2502	
35	0.291667	-226.215	124.08	67.0946	-193.858	119.048	54.2497	-180.115	108.034	41.9884	-170.792	88.9806	29.4032	-207.508	119.2	1.686	-177.903	109.179	3.57448	-174.305	101.913	27.8837	-204.932	94.3512	-2.61582	-179.053	88.2912	9.62847	-184.453	89.2674	40.5205	-209.114	77.0471	5.94691	-185.724	75.8036	23.5955	-194.576	81.2143	47.0761	-213.307	62.4207	15.2407	-195.497	66.8437	33.0049	-202.847	74.9417	52.8092	-253.921	88.3201	27.2637	-268.104	89.8061	53.1448	-252.862	111.993	44.9718	
